<svg id="Layer_1" data-name="Layer 1" xmlns="http://www.w3.org/2000/svg" viewBox="0 0 1286.86 340.57"><defs><style>.cls-1{font-size:206.44px;letter-spacing:-0.05em;}.cls-1,.cls-2{fill:#fff;}</style></defs><text class="cls-1" transform="translate(525.93 239.83)">Chefgaa</text><path class="cls-2" d="M466.09,200.25a147.41,147.41,0,0,0-12.49-47.17,151.15,151.15,0,0,0-39.72-52.51,163.5,163.5,0,0,0-63.82-34.06c-13.84-3.82-27.91-6.77-42.51-6.2-4,.15-5.62-.77-3.74-5.07,2-4.59,1.64-9.79.43-14.53C301.56,30.2,290.33,23.51,277,23.86c-10.26.27-20.2,8.34-22.48,18.09a23.33,23.33,0,0,0,4.16,20.27c1.15,1.54,2.2,3.29-.44,3.94-6.18,1.54-11.86,4.44-18.63,4.4-38-.22-76-.11-114.08-.12-3.16,0-6.31,0-9.29,1.24-7.62,3.14-9.26,11.84-3.27,17.23,3,2.71,6.68,3.33,10.63,3.33q36.85,0,73.72,0c1.28,0,3.07-.57,3.62,1,.43,1.22-1.05,2-1.93,2.75-4.54,3.91-9.52,7.43-13.29,12.06a7.29,7.29,0,0,1-6.34,2.77c-9.74-.08-19.49,0-29.24,0-11.67,0-23.34-.06-35,.06-6.74.07-11.92,4.64-12.14,10.36s4.37,10.49,11.16,11.2a47.78,47.78,0,0,0,4.94.14c13.86,0,27.73.05,41.59,0,3.21,0,3.94.93,2.36,3.62-2.11,3.62-4.25,7.25-6,11-1.44,3.11-3.68,4-7.11,3.94-6.86-.18-13.72,0-20.59,0-7.27,0-14.55-.14-21.82.09-5,.15-9.11,2.37-11.14,6.79-1.83,4-.93,7.93,2.37,11.09a13.93,13.93,0,0,0,10,3.79c10.71-.06,21.42,0,32.13,0,5.74,0,5.78.07,4.55,5.15a84.22,84.22,0,0,0-1.95,8.32c-.53,3.94-2.5,5.29-6.81,5.25-23.06-.18-46.12-.07-69.18-.08a25.29,25.29,0,0,0-6.93.71c-5.1,1.45-8,5-8,10,0,5.47,2.61,8.87,8,10.33a27,27,0,0,0,7.33.76q33,0,65.9,0c6.57,0,6.64,0,7.45,6.28.32,2.43.17,4.91.43,7.35.39,3.74-1.34,5.06-5.23,5-8-.16-15.93-.08-23.89,0-5.42,0-9.63,2.17-11.74,7-3.17,7.25,2.22,14.11,11.52,14.67a120.77,120.77,0,0,0,12.76.19c14.35-.66,28.74,1.24,43.08-.77,9.08-1.27,18.22-2.17,27.3-3.42a5.63,5.63,0,0,1,1.28,0l.61-.13,3.44-.58,3.44-.56a11.61,11.61,0,0,1,1.44-.2l.09.15c9.59-1.08,19.22-2.17,28.72-3.59,13-1.94,26-3.57,38.95-5.41,12.68-1.8,25.43-3.42,38.17-4.89,9.1-1.05,18.13-2.54,27.26-3.42,12.11-1.17,24.16-3,36.18-4.8a15.66,15.66,0,0,0,13.54-17.43c-3-23-8.2-45.54-17.79-67-12.2-27.35-29.8-50.72-56-67.78-1.14-.74-2.61-1.32-3.14-2.92.61-.12,1.05-.35,1.37-.25,4.8,1.48,9.71,2.6,14.52,4.1,23.54,7.33,43.62,19.93,61.32,35.9,15,13.55,26.1,29.85,34.43,47.76a128.64,128.64,0,0,1,10.72,36.09c1.25,8.7,3.48,17.79-7.21,23.05a2.37,2.37,0,0,0,2.63,1.15c8.59-.83,17.23-1.61,25.6-3.57C462.27,213.41,466.76,207.17,466.09,200.25Z"/><path class="cls-2" d="M46.66,172.82c-7.14,0-14.28.08-21.41,0-9.36-.14-14.68-7.81-11.08-15.91,1.93-4.34,6.26-5.55,10.49-5.63q22.64-.4,45.3,0c6.81.11,11.72,5.12,11.58,10.82s-5.05,10.5-11.82,10.71c-7.68.23-15.37.05-23.06.05Z"/><path class="cls-2" d="M73.69,110.86c3.61.3,8.71-.92,13.44,1.88,4.33,2.57,5.53,6.16,5,10.56a9.21,9.21,0,0,1-7.2,8.11,53.93,53.93,0,0,1-24.34.28c-5.84-1.18-9.25-6.33-8.56-11.17.73-5.11,5.47-9.26,11.25-9.63C66.31,110.71,69.33,110.86,73.69,110.86Z"/><path class="cls-2" d="M59.15,231.65c2.72.17,5.48.13,8.16.56a11.19,11.19,0,0,1,9.22,9.6c.4,4.81-2.56,9.08-7.65,10.62a36.11,36.11,0,0,1-18.63.28c-5.41-1.23-9.37-6.41-8.86-10.73.64-5.5,5.17-9.65,11.18-10.1,2.18-.17,4.38,0,6.57,0Z"/><rect class="cls-2" x="141.88" y="271.12" width="324.5" height="31.27" rx="1.51"/></svg>